<?xml version="1.0" standalone="no"?>
<!DOCTYPE svg PUBLIC "-//W3C//DTD SVG 20010904//EN"
 "http://www.w3.org/TR/2001/REC-SVG-20010904/DTD/svg10.dtd">
<svg version="1.0" xmlns="http://www.w3.org/2000/svg"
 width="100.000000pt" height="100.000000pt" viewBox="0 0 100.000000 100.000000"
 preserveAspectRatio="xMidYMid meet">
<metadata>
Created by potrace 1.14, written by Peter Selinger 2001-2017
</metadata>
<g transform="translate(0.000000,100.000000) scale(0.100000,-0.100000)"
fill="#000000" stroke="none">
<path d="M407 965 c-11 -7 -25 -11 -33 -8 -8 3 -14 0 -14 -6 0 -6 -8 -11 -17
-11 -21 0 -110 -80 -91 -80 8 0 6 -5 -4 -11 -10 -5 -18 -19 -18 -29 0 -10 -5
-22 -11 -26 -8 -4 -7 -9 2 -15 10 -6 10 -9 2 -9 -8 0 -12 -13 -11 -33 1 -19
-2 -39 -6 -45 -3 -5 0 -13 6 -15 7 -3 8 -6 2 -6 -7 -1 -8 -18 -4 -51 4 -27 4
-50 0 -50 -7 0 2 -61 15 -97 4 -13 11 -23 16 -23 11 0 12 -30 2 -31 -5 -1 -26
-2 -48 -3 -64 -4 -74 -12 -65 -51 4 -19 5 -36 2 -39 -3 -4 -1 -6 5 -6 5 0 9
-10 8 -23 -1 -12 2 -37 6 -54 4 -20 3 -33 -3 -33 -5 0 -6 -5 -3 -10 3 -6 -1
-13 -10 -16 -12 -5 -13 -9 -5 -14 8 -5 8 -11 -3 -21 -7 -8 -12 -20 -9 -27 2
-6 0 -12 -5 -12 -12 0 -11 -60 2 -62 5 0 21 -2 35 -2 14 -1 31 -5 38 -9 6 -5
12 -5 12 0 0 4 16 8 35 8 19 0 35 -4 35 -8 0 -5 6 -5 12 -1 19 12 48 12 48 1
0 -6 5 -6 13 0 6 5 23 8 37 6 14 -2 31 -3 38 -3 6 0 19 0 27 0 8 0 22 0 30 0
8 0 22 0 30 0 8 0 22 0 30 0 8 0 23 0 33 0 25 0 82 2 125 4 20 1 37 -2 37 -7
0 -4 6 -5 12 -1 18 11 48 12 48 2 0 -5 6 -6 12 -2 18 11 48 12 48 2 0 -5 8 -4
19 1 10 6 20 9 22 6 2 -2 4 16 4 40 0 24 -3 41 -7 38 -8 -4 -9 -2 -13 36 -1
13 -8 26 -14 30 -17 11 -9 114 9 137 8 10 10 15 3 11 -6 -4 -14 -3 -18 3 -3 5
0 10 7 10 8 0 14 9 14 20 0 11 -4 20 -9 20 -4 0 -6 4 -2 9 7 13 -21 20 -73 17
-24 -1 -46 2 -48 6 -3 5 0 8 5 8 6 0 10 6 9 13 -2 6 3 11 10 9 8 -1 11 2 7 8
-4 6 -1 17 5 25 6 8 9 19 5 25 -3 5 -3 10 2 10 4 0 8 53 8 117 0 89 -3 121
-14 129 -11 9 -12 12 -1 19 9 6 11 4 5 -5 -6 -9 -4 -11 4 -6 9 6 9 12 -3 25
-9 10 -16 25 -16 34 0 9 -3 17 -8 17 -4 0 -13 14 -21 31 -7 16 -15 28 -18 25
-3 -3 -16 6 -30 20 -26 26 -39 32 -27 12 4 -7 -2 -4 -14 6 -12 11 -22 15 -22
11 0 -5 -5 -4 -12 3 -16 16 -41 15 -33 0 4 -7 0 -5 -8 5 -14 17 -33 24 -23 9
6 -9 -23 -9 -39 0 -13 7 -55 3 -79 -7 -14 -6 -17 -5 -12 3 9 15 5 15 -17 -3z"/>
</g>
</svg>
